/* XPM */
static char *result[] = {
/* columns rows colors chars-per-pixel */
"64 64 20 1 ",
"  c #533B1B",
". c #302410",
"X c #045800",
"o c #044C00",
"O c #744C28",
"+ c #044000",
"@ c #28200C",
"# c #646464",
"$ c #5C4020",
"% c black",
"& c #905C34",
"* c #7C7C7C",
"= c #87562F",
"- c #6C4824",
"; c #382F22",
": c #046400",
"> c gray13",
", c #4C4C4C",
"< c gray27",
"1 c #9B9B9B",
/* pixels */
"==O-- $$-$=--==$=-$$$$O$ $-$$$$ $  -$=$-$$-O$$$ $ $ $ $-=$O-$$= ",
"  ;;.@....;@@; ; ;..@.;.@@....;. .@@@@...@.;@.;. .;@.@..;@...;;.",
"@@@@@@@@@@@@@@@@@@@@@@@@@@@@@@@@@@@@@@@@@@@@@@@@@@@@@@@@@@@@@@@@",
">>>>>;>>>;;>>;;;;>>>>>;;>>;>>>>>>>>>>;>>;;;>>>>;;;;;>;;;>>;>>>>>",
"+++++Xo+X:X+&&&&&&&&&&&&&&&&&&&&&&&&&&&&&&&&&&&&&&&$+oXX+oX+++++",
"+++++Xo+oXo+&OOOOOOOOOOOOOOOOOOOOOOOOOOOOOOOOOOOOOO$++:X+oX+++++",
"+++++Xo+oXo+&O$$$$$$$$$$$$$$$$$$$$$$$$$$$$$$$$$$$$O$++XX+oX+++++",
"+++++Xo+oXoo&O$%%%%%%%%%%%%%%%%%%%%%%%%%%%%%%%%%%&O$+oXX+oX+++++",
"+++++Xo+oXXX&O$%%%%%,#######%%%%%%%%,#######%%%%%&O$+XXX+oX+++++",
"+++++Xo+oXXo&O$%%%%%#######,%%%%%%%%#######,%%%%%&O$+XXX+oX+++++",
"+++++Xo+o:X+&O$%%%%%#######%%%%%%%%%#######%%%%%%&O$+o:X+oX+++++",
"+++++Xo+o:X+&O$%%%%,#######%%#*****#<######%%%%%%&O$+o:X+oX+++++",
"+++++Xo+XXoo&O$%%%%########%#********<#####%%%%%%&O$+oX:+oX+++++",
"+++++Xo+X:XX&O$%%%%#######,#**********,###,%%%%%%&O$+oXX+oX+++++",
"+++++Xo+X::X&O$%%%%#######%************<##%%%%%%%&O$+:::+oX+++++",
"+++++Xo+:XXo&O$%%%,########*************##%%%%%%%&O$+X::+oX+++++",
"+++++Xo+::o+&O$%%%########*************#<#%%%%%%%&O$+o::+oX+++++",
"+++++Xo+::o+&O$%%%#######,**#**####**##<*,%%%%%%%&O$++::+oX+++++",
"+++++Xo+XXo+&O$%%%########<>**;******#<#*#######%&O$+oX:+oX+++++",
"+++++Xo+XXo+&O$%%,########>#%%;#%%%%*<##*#######%&O$+oX:+oX+++++",
"+++++Xo+oXoo&O$%%#########*%%%%*%%%%%###*######,%&O$+oXX+oX+++++",
"+++++Xo+oXXX&O$%%#########*%%%%*%%%%%*##<######%%&O$+oXX+oX+++++",
"+++++Xo+X::X&O$%%#########*%%%,;*%%%>*#<#######%%&O$+X:X+oX+++++",
"+++++Xo+::X+&O$%,######**#>***%%##***>%%*;#####%%&O$+X::+oX+++++",
"+++++Xo+::o+&O$%#######,*%<<%%%%,*%%%#;%1;####,%%&O$+o::+oX+++++",
"+++++Xo+X:o+&O$%#######*1>#>%*><**;%><,**1####%%%&O$+o::+oX+++++",
"+++++Xo+X:o+&O$%%%%%%%,####>>******>;%,#######%%%&O$++::+oX+++++",
"+++++Xo+XXXo&O$%%%%%%%#####>%>>;>%%>%%########%%%&O$+o:X+oX+++++",
"+++++Xo+XXXX&O$%%%%%%%##,1**;;;#;><<<########,%%%&O$+X:X+oX+++++",
"+++++Xo+XXXX&O$%%%%%%%###***#%%%%%%*1***<####%%%%&O$+:XX+oX+++++",
"+++++Xo+oXXo&O$%%%%%%,##,**##%%%%%%%%*****###%%%%&O$+XXX+oX+++++",
"+++++Xo+XXo+&O$%%%%%%####*###%%%%%%%%##*>####%%%%&O$+oXX+oX+++++",
"+++++Xo+X:o+&O$%%%%%%#######,%%%%%%%%##1####,%%%%&O$+o::+oX+++++",
"+++++Xo+X:X+&O$%%%%%%#######%%%%%%%%%#######%%%%%&O$+o::+oX+++++",
"+++++Xo+X:Xo&O$%%%%%,#######%%%%%%%%,#######%%%%%&O$+o::+oX+++++",
"+++++Xo+X:Xo&O$%%%%%#######,%%%%%%%%#######,%%%%%&O$+X::+oX+++++",
"+++++Xo+oXXo&O$%%%%%%%%%%%%%%%%%%%%%%%%%%%%%%%%%%&O$+X:X+oX+++++",
"+++++Xo+oXX+&O$&&&&&&&&&&&&&&&&&&&&&&&&&&&&&&&&&&&O$+o:X+oX+++++",
"+++++Xo+oXX+&OOOOOOOOOOOOOOOOOOOOOOOOOOOOOOOOOOOOOO$+o:X+oX+++++",
"+++++Xo+oXo+&$$$$$$$$$$$$$$$$$$$$$$$$$$$$$$$$$$$$$$$+oXX+oX+++++",
"+++++Xo+oXo+++ooo++++oo++++++++++++++++++oo+++++ooo++oXX+oX+++++",
" $ $-=$O-$$= ==$=-$$$$O$ $-==$=-$$$$O$ $-$$$$ $  -$=$-$$-O$$$ $ ",
"@.@..;@...;;.; ; ;..@.;.@@.; ; ;..@.;.@@....;. .@@@@...@.;@.;. .",
"@@@@@@@@@@@@@@@@@@@@@@@@@@@@@@@@@@@@@@@@@@@@@@@@@@@@@@@@@@@@@@@@",
".;.;@%$. . .   @%$ . .. ;.@%$... ;...@%$.; ... @%$ .......@%$.  ",
" - -.%= O O OOO.%=O O  O$ .%=  $O$$ $.%=$$O$  O.%=O   $$  .%=$OO",
" - -.%= O O OOO.%=O O  O$ .%=  $O$  $.%= $O$  O.%=-   $-$ .%=$O-",
" - -.%= O O OOO.%=O O  O $.%=  $O$ $$.%= $O$  O.%=-  $-O-$.%=-O-",
" - -.%= O O -OO.%=O O  O $.%=  $O$ $-.%= $O$  O.%=$  $OOO$.%=OO$",
" - -.%= O O -OO.%=O O  O $.%=  $O$ $-.%= $O$  O.%=$  -OOO-.%=OO$",
" - -.%= O O $OO.%=O O  O $.%=  -O  $O.%=  O-  O.%=   OOOOO.%=OO$",
" - -.%= O O $OO.%=O O  O $.%=  --  $O.%=  --  O.%=  $OOOOO.%=OO$",
" - -.%= O O$ OO.%=O O  - $.%=  O-  -O.%=  -O  O.%=  $OOOOO.%=O- ",
" - -.%= O O$ OO.%=O O  - -.%=  O$  -O.%=  $O  O.%=  -OOOOO.%=O- ",
" - -.%= O O$ OO.%=O O  - -.%=  O$ $OO.%=$ $O  O.%=  -OOOOO.%=O- ",
" - -.%= O O$ OO.%=O O  $ -.%=  O$ $OO.%=$ $O  O.%=  OOO$OO.%=O$ ",
" - -.%= O O$ OO.%=O O  $ O.%=  O$ $OO.%=$ $O  O.%= $OO$ $O.%=O$ ",
" - -.%= O O$ -O.%=O O    O.%=  O$ $OO.%=$ $O  O.%= $OO$ $-.%=O$ ",
"$- -.%= O O- -O.%=O O   $O.%=  O$ $OO.%=$ $O  O.%= $O$$  $.%=O$ ",
"$- -.%= O O- --.%=O O   $O.%=  O  -O-.%=-  O  O.%= -O$   $.%=-  ",
"$- -.%= O O- $-.%=O O   $O.%=  O  -O-.%=-  O  O.%= -O$    .%=-  ",
"$$$$ $  -$=$-$$-O$$$ $ $ $ $-=$O-$$= ==O-- $$-$=--==$=-$$$$O$ $-",
"...;. .@@@@...@.;@.;. .;@.@..;@...;;.  ;;.@....;@@; ; ;..@.;.@@.",
"@@@@@@@@@@@@@@@@@@@@@@@@@@@@@@@@@@@@@@@@@@@@@@@@@@@@@@@@@@@@@@@@"
};
