/* XPM */
static char *result[] = {
/* columns rows colors chars-per-pixel */
"64 64 17 1 ",
"  c #2A2825",
". c #885830",
"X c #744C28",
"o c #7B6B5A",
"O c black",
"+ c #524A42",
"@ c #4C4436",
"# c #201F1D",
"$ c #736352",
"% c #5E5246",
"& c #5A3F1F",
"* c #6C4824",
"= c #343434",
"- c #181818",
"; c #9D6038",
": c #443418",
"> c #94846B",
/* pixels */
"                                                                ",
"$$$$$$$$$$+@@@#  @@@+$$$$$$$$$$$$$$$$$$$$$+@@@#  @@@+$$$$$$$$$$$",
"+%%+@+%%%+$$% O  =@+@%%%$%+%%+%+$$%@+@%@@@@@% O  =%%%%@  @@@@+%+",
"$$+%+@+$$$$%$ O  ==@%%%$$%++@++%$%$+%%%++%+@+ O  =$$%@@  @@+@@$$",
"$$@@++%%%$%%% O  =@%+%%$%%+%++%+%$%%++%o+%@+@ O  =%%$%++@ +%%%$$",
"%$+%%++$$$$$@ O  =%@%%%%%%+@@+@+%$%$o$$%++@@@ O  =+%$@@%%@@+%%$o",
"%$%%+%%%%$%$% O  =$$%%++@%%%+@@+@@%%$$%%%@@ @ O  =%%%$$%%$%$$%$%",
"%+%+%%$$$%%%% O  =$%$+@++@%@++=++@+%$%%+@+@ @ O  =@%+%%%$o$%%$$$",
"OOOOO-----#   O     #----OOOOOOOOOOOO-----#   O     #----OOOOOOO",
"OOOOOOOOOOOOOOO  #OOOOOOOOOOOOOOOOOOOOOOOOOOOOO  #OOOOOOOOOOOOOO",
"###############  ##############################  ###############",
" @@@+$$$$$$$$$$$$$$$$$$$$$+@@@#  &&&*.....................*&&&# ",
" =+%$o%%%%@=%+%+$$+%%+%%%@@+% O  :XX***XXXX****X;;XXX;X...X*X:O ",
" =%%$%%+@%%+@@%%$%+%+%%++%%%+ O  :.*&&X*X*...X.X...X;..;;X...:O ",
" =%%%+++=+++%%%%$%$+@@+%+%+%$ O  :XXX&:*XXX.*XXX;;;X.;;.;..*X:O ",
" =+%%++@+%%$$+$%%%$$+%%%$%$%$ O  :X&&&&&*...;..;;;;;XX.......:O ",
" =@+%%+%$%$+$$%%+%%$+%$$$%%$$ O  :*&&*XXXXX;.;..;...**...;;.X:O ",
" =%%+%@%%$o$$$$+%+%%%%%$$>o%% O  :*****X..XX.;;;..X.XX*;XXX*&:O ",
" =%%@%$%$%$%$%%$$++%ooooo$$$$ O  :&&*&:XXX.XX;...XX&X.**XX.X&:O ",
"    #----OOOOOOOOOOOO-----#   O    ######OOOOOOOOOOOO###### # O ",
" #OOOOOOOOOOOOOOOOOOOOOOOOOOOOO  -OOOOOOOOOOOOOOOOOOOOOOOOOOOOO ",
" ##############################  ############################## ",
"$$$$$$$$$$+@@@#  @@@+$$$$$$$$$$$$$$$$$$$$$+@@@#  @@@+$$$$$$$$$$$",
"%$$o$o$o>>oo> O  =$o>oo$o$%%$+$%%%+$@ @ =+%$% O  =%@%$%%@@@+%$%$",
"oo$$oo>oo>>oo O  =$$oo$$%ooo$+%+@%+++@@@ @@$% O  =$%+%$+%+%+%$$o",
"$$o$o$o>>o>$% O  =$$$$$$%%$$%%%@@@@%%+@@==$+$ O  =$++++++%%%%$$o",
"oo$$$ooooo>o% O  =$+$oo$$$++@@=@@@@@%@++%@+%% O  =++@%+$%$%%$$$$",
"$o%$$%%$o$o$% O  =$$%$$$$%++@%@@@+@++%+@@++%% O  =+%$$%%$oo$o$$o",
"%o$+@%%$$$$$% O  =%%%$$%@@@@=@=@+%@++$$%%%+@% O  =%$%%o$$oo%$$$%",
"$%%$+%%++%%%$ O  =$$$+%$o@%%@@+@@+%%%%%++%%+% O  =$ooo>$o>>$ooo$",
"OOOOO-----#   O     #----OOOOOOOOOOOO-----#   O     #----OOOOOOO",
"OOOOOOOOOOOOOOO  #OOOOOOOOOOOOOOOOOOOOOOOOOOOOO  #OOOOOOOOOOOOOO",
"###############  ##############################  ###############",
" &&&*.....................*&&&#  @@@+$$$$$$$$$$$$$$$$$$$$$+@@@# ",
" :&&&*X.X...XX.X.;.;..;..X.*.:O  =$$$$o$oo$$o%%$$ooo$o$%$%+%+ O ",
" :&X&:XX.XXX&**X.;;..;;;.XXXX:O  =$+$$oo$oo$$$$+$$o$%%$%%$%%% O ",
" :XXX&*XXX..&&&XXX...XX.;;.&*:O  =%oo>o>>$o$%$%%+$$$%$$$+%+++ O ",
" :X*&&:&XXXX.&*&X...X......&&:O  =%o$oo$$oo%+$$%=@%@o%%%%%@@@ O ",
" :****&:*X..XXXXXX;.;.X.;;.*&:O  =$%oo$oo%%%@@%+%@+%%%$%%++@@ O ",
" :X&:&&:&XX..X.X.X*..XXXXX;**:O  =$%oo$$%$%%+=+%+@@+@+%%%%$$+ O ",
" :**&&&&:&XX..;..X..X.X*X.XX&:O  =%%$$o$%%%%%@@%%+%+%+%%$%%$% O ",
"  # #####OOOOOOOOOOOO###### # O     #----OOOOOOOOOOOO-----#   O ",
" #OOOOOOOOOOOOOOOOOOOOOOOOOOOOO  #OOOOOOOOOOOOOOOOOOOOOOOOOOOOO ",
" ##############################  ############################## ",
"$$$$$$$$$$+@@@#  @@@+$$$$$$$$$$$$$$$$$$$$$+@@@#  @@@+$$$$$$$$$$$",
"%+@+%%@@@@@+@ O  =%%++%$%$%@@%%+++$$%$o$%+%%% O  =$%$$o$$>oo$o>$",
"++@@@+@@@$+@+ O  =%$%%%%%+%+@+%%%%%$$$%+@@@++ O  =%%$o>ooo%o$$$o",
"$++@%@%%+%$%@ O  =$%$%$$o%++@@@%$+$%$$$$%@+@+ O  =%$%>>>$oo$$%$$",
"$+$%@+%+%+$%+ O  =$%$%o$$$++@@=$$$%%%$$%o$+=+ O  =$$$>>>>$$$$%$%",
"%%%@@++%%+%%$ O  =$o$%$%%%%%@+@@++%+%%$%%%%+@ O  =ooo$>>>$%$$%%$",
"%$%+@@++$%%$> O  =o$%%+%$%%@@@ ==%+%+$oo%$%%@ O  =$$o$$oo>o%%%$%",
"++$$$o%%oo$$$ O  =%$$%%%+%%+@++@@@=%%%$oo$$$$ O  =$+%$%o>oo$%$%$",
"OOOOO-----#   O     #----OOOOOOOOOOOO-----#   O     #----OOOOOOO",
"OOOOOOOOOOOOOOO  #OOOOOOOOOOOOOOOOOOOOOOOOOOOOO  #OOOOOOOOOOOOOO",
"###############  ##############################  ###############",
" @@@+$$$$$$$$$$$$$$$$$$$$$+@@@#  &&&*.....................*&&&# ",
" =%%$%$$o$$$o$%%$$$%@@+@%%%$$ O  :.X.*XXX;;;.;.XX..XXX*&X..X;:O ",
" =%%%$+oo>>o%+%%%$%$%@+%%$%o$ O  :&X***XXX;.;...X.*XXX****X.;:O ",
" =+@+$%ooooo%$+@+%+%$+@$$$%o$ O  :&XX*X*X*.X..XXX*&***X*.XX.X:O ",
" =@=+@o$oo>o%+@+@%%%%$+%$$oo% O  :XX**&&&&XX..X**:X&X.XX..X..:O ",
" =+@+%%$$oo>$%+=@++$%$%%$$$$% O  :&*X*&&&&&&.X.X*&**&...;;X*&:O ",
" =+@@+%%$$%$%%%+@++$%$$%%$%$$ O  :*&&&*:&*&&X*..XX&X*X;..X..&:O ",
"    #----OOOOOOOOOOOO-----#   O   # #####OOOOOOOOOOOO###### # O ",
" #OOOOOOOOOOOOOOOOOOOOOOOOOOOOO  #OOOOOOOOOOOOOOOOOOOOOOOOOOOOO "
};
