/* XPM */
static char *result[] = {
/* columns rows colors chars-per-pixel */
"64 64 35 1 ",
"  c black",
". c #7C0000",
"X c #28200C",
"o c #1F201F",
"O c #704A26",
"+ c #5E5246",
"@ c #504A44",
"# c #736352",
"$ c #700000",
"% c #533B1B",
"& c #989898",
"* c #2A2926",
"= c #302410",
"- c #4A4337",
"; c gray55",
": c #1B1B1B",
"> c #5C4020",
", c #640000",
"< c gray66",
"1 c #E4D800",
"2 c #9C4C00",
"3 c #885830",
"4 c #7B6B5A",
"5 c gray44",
"6 c gray20",
"7 c #580000",
"8 c #5F5F5F",
"9 c #B4B4B4",
"0 c #7C7C7C",
"q c #403018",
"w c #94846B",
"e c #80502C",
"r c #B95600",
"t c #DC8854",
"y c #FCD8C4",
/* pixels */
"eeOOO%>>O>eOOe3>eO>>>>O>%>O>>>>%>%%O>e>O>>OO>>>%>%>%>%>Oe>OO>>e%",
"%%qq=X====qXXq%q%q==X=q=XX====q=%=XXXX===X=qX=q=%=qX=X==qX===qq=",
"XXXXXXXXXXXXXXXXXXXXXXXXXXXXXXXXXXXXXXXXXXXXXXXXXXXXXXXXXXXXXXXX",
"=q=q  t1y  111111111111111111111111111111111111111111  y1tX ==%%",
"%O%O= rr1%   22222222222222222222222222222222222222   %trrX 3>OO",
"%O%O= O%rX.$$  ::::::::::::::::::::::::::::::::::  .$$qr=q= 3>OO",
"%O%O= 3%O%.$$$,,87777,,,$$$....$$$$,,,7777,,,$$8....$$%OO>= 3OOO",
"%O%O= 3%O%.$$$,@&5 77,,,$$$....$$$$,,,7777,,,:0<8...$$%OO>= 3OO>",
"%O%O= 3%O%.$$$, &;5 7,,,$$$....$$$$,,,7777,, ;<<*...$$%OOO= 3OO>",
"%O%O= 3%O%.$$$@ *;;;:,,,$$$....$$$$,,,7777,o&<<6o8..$$%OOO= 3OO>",
"%O%O= 3%O%.$$$5&@o;;;*,,$$$....$$$$,,,7777*&&<689;..$$%OeO= 3OO>",
"%O%O= 3%O%.$$:*&&0-5;&@,$$$....$$$$,,,777-&&58&<9@*.$$%OOO= 3OO%",
"%O%O= 3%O%.$$05@;;;5@&&5:$$....$$$$,,,7 5;&80<<&8;;.$$%OOe= 3OO%",
"%O%O= 3%O%.$$8&&;55;;;&&<6$....$$$$,,,o;;;;&&00&998.$$%OOO= 3OO%",
"%O%O= 3%O%.$86@&&;;5-&&&<<0....$$$$,,5;;;;&@5<<<98@5$$%>OO= 3O>%",
"%O%O= 3%O%.$<<&5585;;&&&<<<5...688o,8&;;;;&&&;50;999$$q%>O= 3O>%",
"%O%O= 3%O%.$o0&&&;0@-&&&<<<;..5<<<0,5&;;;;&@8&<<99;6$$q%>O= 3O>%",
">O%O= 3%O%.$8@*@50;;;&&&<<<@.69<<8$,*&;;;;&&&<&08@85$$q%%>= 3O>%",
">O%O= 3%O%.$<<&&;5@-5&&&<<;..89<<@$,,0;;;;&5@80&9999$$=%%>= 3O%%",
">O%O= 3%O%.$o0;;;055-&&&<<8..89<<@$,,@;;;;&@50&&<<;6$$=%%%= 3O%%",
">O%O= 3%O%.$8885;;;;;&&&<<<6699<<<o,:&;;;;&&&<<&;585$$=%%%= 3>%%",
">O%O= 3%O%.$0<&&&05@5&&&<<<999&*&<<&&&;;;;&580&<999;$$=%%%= 3>%%",
">>%O= 3%O%.$$68@@-80;&&&<<<99<o8;;<&&&;;;;&&;58885@.$$=%%%= 3>%%",
"O>%O= 3%O%.$$o5&&;;5:5&&<<<9&&o@::;&&&;;;;5o5<<<9;6.$$=%%%= 3%%%",
"O>%O= 3%O%.$$$@00@o-0&&&<<<9o58:@8o&&&;;;;&;@68;&8..$$=%%%= 3%%%",
"O%%O= 3%O%.$$$,, @;;;8&;;0@9&oo@o;;&&-550;8&&<8:....$$=%%%= 3%%>",
"O%%O= 3%O%.$$$,,5;5-5&;  6099&&8:;<&&5o  0&5@;<0....$$=>>%= 3%%>",
"O%%O= 3%O%.$$$,,,7:0;0: 6<<999&:;<<&&&;:  0&;6$$....$$q>>>= 3%%>",
"O%%O= 3%O%.$$$,,, 50@8  ;<<99;9<<<&&&&;5  88;0:$....$$qOO>= 3%%O",
"O%%O= 3%O%.$$$,,,777o&* <<<99@9<<8:&&&;; o&*,$$$....$$qOO>= 3%%O",
"O%>O= 3%O%.$$$,,,7-;658 ;<<9&@9<<; 0&&;5 @5-&8$$....$$%OO>= 3%>O",
"O%>O= 3%O%.$$$,,, ;;;80 :8<9-59<<<:*&&-  58&&<o$....$$%OOO= 3%>O",
">%>O= 3%O>.$$$,,,776o0&&&<<@.&9<<<6,*&;0;;0*-$$$....$$%OOO= 3>>O",
">%>O= 3%O>.$$$,,,7 0;55&66$..<9<<<8,,,oo;55&;o$$....$$%OOO= 3>OO",
">%>O= 3%O>.$$$,,,7 05,*&8$$..59<<;6,,,7-;o,5;:$$....$$%OOe= 3>OO",
"%%OO= 3%O>.$$$,,,7777,,@$$$...-86$$,,,77-7,,,$$$....$$%OOO= 3OOO",
"%%OO= 3%O>.$$$,,,7777,,,$$$....$$$$,,,7777,,,$$$....$$%OOe= 3OOO",
"%%OO= 3%y>.$$  ::::::::::::::::::::::::::::::::::  .$$%y>O= 3OOO",
"%%OO= t1yt   11111111111111111111111111111111111111   1y1t= 3OO>",
"%%O>= rr1  222222222222222222222222222222222222222222  trrX 3OO>",
">>>>%>%%O>e>O>>OO>>>%>%>%>%>Oe>OO>>e%eeOOO%>>O>eOOe3>eO>>>>O>%>O",
"===q=%=XXXX===X=qX=q=%=qX=X==qX===qq=%%qq=X====qXXq%q%q==X=q=XX=",
"XXXXXXXXXXXXXXXXXXXXXXXXXXXXXXXXXXXXXXXXXXXXXXXXXXXXXXXXXXXXXXXX",
"oooooooooooooooooooooooooooooooooooooooooooooooooooooooooooooooo",
"##########@---:**---@#####################@---:**---@###########",
"+@-@++-----@-* **6++@@+#+#+--++@@@##+#4#+@+++* **6#+##4##w44#4w#",
"@@---@---#@-@* **6+#+++++@+@-@+++++###+@---@@* **6++#4w444+4###4",
"#@@-+-++@+#+-* **6#+#+##4+@@---+#@#+####+-@-@* **6+#+www#44##+##",
"#@#+-@+@+@#+@* **6#+#+4###@@--6###+++##+4#@6@* **6###wwww####+#+",
"+++--@@++@++#* **6#4#+#+++++-@--@@+@++#++++@-* **6444#www#+##++#",
"+#+@--@@#++#w* **64#++@+#++---*66+@+@#44+#++-* **6##4##44w4+++#+",
"@@###4++44###* **6+##+++@++@-@@---6+++#44####* **6#@+#+4w44#+#+#",
"     :::::o*** *****o::::            :::::o*** *****o::::       ",
"               **:                             **:              ",
"ooooooooooooooo**oooooooooooooooooooooooooooooo**ooooooooooooooo",
"*---@#####################@---:**---@#####################@---:*",
"*6++#+##4###4#++###+--@-+++##* **6#+#@+++444#4#++##+++@-+##+4* *",
"*6+++#@44ww4+@+++#+#+-@++#+4#* **6-+@@@+++4#4###+#@+++@@@@+#4* *",
"*6@-@#+44444+#@-@+@+#@-###+4#* **6-++@+@+@#+##+++@-@@@+@#++#+* *",
"*6-6@-4#44w4+@-@-++++#@+##44+* **6++@@----++##+@@6+-+#++##+##* *",
"*6@-@++##44w#+@6-@@#+#++####+* **6-@+@------#+#+@-@@-###44+@-* *",
"*6@--@++##+#+++@-@@#+##++#+##* **6@---@6-@--+@##++-+@+4##+##-* *",
"****o::::            :::::o*** *****o::::            :::::o*** *",
"*:                             **:                             *"
};
