/* XPM */
static char *result[] = {
/* columns rows colors chars-per-pixel */
"64 64 11 1 ",
"  c #282828",
". c gray22",
"X c #181818",
"o c gray19",
"O c #202020",
"+ c gray11",
"@ c black",
"# c #4C4C4C",
"$ c gray37",
"% c gray27",
"& c #717171",
/* pixels */
"%%%%%#######%%%%.oo  o.%.....ooooo....oo.oo..                  @",
".oooooo.......oo   o        OXXXX+       O XXX+X+X+X+X+X+X+XX+X@",
".o.o&#....&#o..oo  oo  OOOO+XXXXXXO      OOXXXXXXXXXX&#XXXX&#X @",
"..o.#X....#X...o     OOOXXXXXXXXXX+OOO   o OXXXXXXXXX#@XXXX#@XX@",
". o..ooo.......   OOOOXXXXXXXXXXXXX+OOOO      XXXXXXXXXXXX@@XXX@",
".oo..oooooo...ooOOOOOOXXXXXXXXXX+XX+OOOO O    OOXXXXXXXXXXX@XXX@",
". o..o    oooo  OOOOOOOXXXXXXXXXXXXX+O   ooo   OOXXXXXXXXXXXXXX@",
"%  .&#  XXXXXXX@@@@@@@@@@@@@@@@@@@@@@@@XXXXXX@@@@@@@@@@@XXX&#XX@",
"%ooo#X  X oooooOXO  OO   OOOOOXXXXXXOO oooooo  OOXXXXXO $OX#@XX@",
"% o     Xo.&#oo   &#  o.. &# OXXXXX&#O o    &#  OOXX&#Oo$   XOX@",
".oo o   X..#Xoo   #Xo.oooo#X OOXXXX#XO  OOOO#X OOOXX#@O $oo XXX@",
"%ooo o oX.....oo O oooo   O  OOOXXOOOOOOOOOOO  OOOOOOOO $oo OXX@",
"%ooo oooX..o..X@@@@@@@@@@@@@@@@@@@@@@@@@@@@@@@@@@@XXOOOO$oo OXX@",
"%oooooo.X.ooooXoo   OOOOOOOOO+++++O     OOO++++OO % OOOO$   OXX@",
"%ooooo..X.ooooX.oo  OOOOO    OO+O+O   OO+++++++++O%  OOX#OOOXXX@",
"%ooooo..XoooooX..o  OOOOOOO           O++++++XX++X%  XOO#XXXXXX@",
"%oooooo.XoooooXo..o  OOOOOO            O++++XXXXXX%OOOXX#XXXXXX@",
"%.ooooo.Xoooo.Xoo..    OOOO            OO+++++XXXX.OOOOX#XXXXXX@",
"%...ooo.Xoooo.Xoo..o    OOOO            OO++++++XX.OOOOX#XXXXXX@",
"%.o..oooXoo&#.O oo..o    OO              OOO++++XX.O&#OX#XXXXXX@",
"%o.o.oo Xoo#XoO  oo..o    OOO             OOO+++XX.O#@OO$OOOXXX@",
"%o...o  X....oO   oo..o   OOOO              OO++XX.XOOOO$OOOXXX@",
"#o..o O Xo.o..Xooooo..oo   OOOOOOOOOO        O++XX.XXO  $OOXXXX@",
"#o..o   Xo.o..X.ooooo..oo     OOOOOOO        OO++X.XXO  $ OXXXX@",
"%...ooooX ...oX.ooooo....o     OOOOOOO        O+++.XOOO $ OXXXX@",
"%..oo...X....oX.oooooo....oo    OOOOO         OOO+%OOO  $ OXXXX@",
"%oooo...X.ooo.Xooooooooo....oo   OOOOO           O%O    $OOXXXX@",
"#o.ooo..X.o&#oXooooo..oo.....oo   OOO O           o &#  $OOOXXX@",
"    &#o.X..#XoX  ooo..........oo      OOOOO       o #@  $OX&#XX@",
"oOOO#Xo.X...o X ooo.............o      OOOOO      .     $OX#@XX@",
"oXOOO o.X.o.o Xoooo..............oo    OOOOO      %OOO  $OOXXXX@",
"oXOOO ooXooo OXooo........oo.......oo   OOOO      %OOOO $OOXXXX@",
" OOOOo oXooooOXoo........ooo.........o   O++O     .XXOOO$OXXXXX@",
" OOO oooX.ooo Xoo........oooo....oo...o  O+++O   O%OOO O$XXXXXX@",
"     oooX.... Xooo......oooooo.....o..oo O+X++OOOO%OO   $XXXXXX@",
" o      X..&#oX  oo....ooooooooo.......o  +X++OOO+%O&#  $OOXXXX@",
"  OO&#  X..#XoX  ooo....oo      oo....ooo O+++OO  % #@o $ O&#XX@",
" OOO#XO X..oooX   ooo...o         ooooooo O+++O   %oooo $OO#@XX@",
"oOOOOOO Xo..ooX   oooo..o   OOOO    oooo  O+++O   %  o  $OXXXXX@",
"oOOOOOOOX oo.oX   oooo..o  OOOOOOO        O+++O   % O  O$XXXXXX@",
" O OOOOOX  oo.Xooooooo..o    OOOOO       O++++O   % OOOO#XXXXXX@",
"oOOOOOOOX  oo.Xoooo......o   OOO        OO++X+O   % OOOX#XXXXXX@",
"oOO OOOOX  oo.X..o.......o     O       OO+++++O   % OOOX#XXXXOX@",
".OO OOO Xoo&#oX...........o           OO+++++OO   % &#OX#XXXOOO@",
"% O  OO Xoo#XoXo...........o          O+++++OO    %o#@OO#XXOO OX",
"#o  oOO Xo..ooXooo..........oo       O++XX++O     %   OO$OOOO OX",
"%.o O O Xo..o Xooo...........oo    OO++XXX++OO    %  OOO$OOO  OX",
".o.o o OX.ooo X oo............oo  O++XXXXX++OOO   %OOOXX$O    oX",
". o.o  OX o   X oo........ooo..o  O+XXXXX+++++OO+O.XOOO $     OX",
"..oo.o  Xoo   X  o..oo...ooooo..o O+XXXX+++++++++X.OOO  $   OO X",
"%.ooo.. Xo..o X  o..oooo.oooooo.. O++XX++++++++XXX.XOOOO$OOOOO X",
".oooooo.Xoo.ooO%#####$$$$$$$$$$$###%%%........%%%%#XXXXX$XO    X",
"#oooooo X  o.oooooo..o     oo......oo   OOOOOO+XXXXXXXXX#O ooo X",
"#ooo    XOO&#.ooooo&#o     &#......&#   OOOO&#XXXXXX&#XX#O o.ooX",
"%..    OXOO#Xo.oo..#Xo   oo#Xo....o#@  OOOOX#@XOXXXO#@XX#XO oooX",
"  oo&# OXOO  oo....ooo  ooooooo..   OOOXXXXXXXXXXXXXXXXX#XX&#ooX",
"oOoo#X  o&&$$$$$$$$$$$$$$$$$$$$$$$$$$$$$$$$$$$$$$$$$$###&XX#@ooX",
". ooo   OO  oo.. o.oo..oo..... o OOOOOXXXXXXOXOXOXXXXXX++XX oooX",
"%oo..o  OOO oo...oooo.......oo    OO  OXOOXXXXXOOOOXXXXXXXO o  X",
"#..o         o.oo.o.. . .ooooooo  O    OOOOOXXXOOOOOXXXXXXO   OX",
"%oo &#o o.&#oo .oo.o..oo.o...o..oooo O  OOOOXXXOOOOOO&#XXOO&#O X",
"%.o #Xoooo#Xo.o.o.o.ooo.oooo  o..ooo   oO OOOOXXXOOOX#@XXO #@ oX",
"o.oo o..oOOo. O ..oo. ooo    oooooo      XXOOOOXXOOXXXXXXO     X",
"OXXXXXXXXXXXXXXXXXXXXXXXXXXXXXXXXXXXXXXXXXXXXXXXXXXXXXXXXXXXXXXX"
};
