/* XPM */
static char *result[] = {
/* columns rows colors chars-per-pixel */
"64 64 5 1 ",
"  c gray36",
". c #484848",
"X c #646464",
"o c gray19",
"O c #7C7C7C",
/* pixels */
"OOOOOOOOOOoOOOOOOOOOOoOOOOOOOOOOoOOOOOOOOOoOOOOOOOOOOoOOOOOOOOOo",
"OX XX  XX.oO    XXXX.oO   X X X.oOX     X.oOXXXXX   .oOX XXXXX.o",
"O XXXXXXX.oOXX XXXXX.oO        .oOX   X  .oOXXX XXX .oO XXX XX.o",
"O. X     .oO X XX XX.oO    X   .oO X  X  .oO  XX XXX.oO    XXX.o",
"O      . .oOXX XX   .oO      X .oO XX  X .oOX  X  XX.oO    XXX.o",
"O    X  X.oOX XX   ..oOXX     X.oO XXXXX .oO X X  X .oOXXX  XX.o",
"O      . .oOXX  XX  .oOX      X.oOX XXX  .oOXX    XX.oO XX  XX.o",
"O        .oOX X XXXX.oOX       .oOX  X   .oOXX X XXX.oO XXX X .o",
"O    X   .oO     X  .oO       X.oO XXX   .oO XXX  XX.oO  X  X .o",
"O   XX   .oO     XX .oO        .oOX XX XX.oO   XXXXX.oO XXX XX.o",
"O  X X X .oOXXX  XXX.oO  XX X X.oO     X .oO X X X X.oOXX XX  .o",
"O  XXX   .oOXXXX XX .oOX  XXXXX.oOX  X X .oO    XX  .oO XXX  X.o",
"O  XXXX  .oOX     XX.oO   X XXX.oOX  XXXX.oO    XXXX.oOXXXXX  .o",
"OXX  X  X.oO    X XX.oO  XXXX X.oO X XXXX.oOX X     .oO X  XX .o",
"O.........oO.........oO.........oO........oO.........oO........o",
"oooooooooooooooooooooooooooooooooooooooooooooooooooooooooooooooo",
"OOOOOOOOOOoOOOOOOOOOOoOOOOOOOOOOoOOOOOOOOOoOOOOOOOOOOoOOOOOOOOOo",
"OX XXX XX.oO X      .oO    X XX.oO X X  X.oO        .oOXXXXX  .o",
"OXXXXXXX .oO  XXX   .oOX XXXX X.oOX X XXX.oOX       .oO  X   X.o",
"OXXXXXX X.oOXX      .oO   X X X.oOX  XXX .oO     X X.oOX X X  .o",
"OXXXX  X .oOXX X X  .oO X X  XX.oOX   XX .oOX   XXXX.oOX X X  .o",
"OXXXXXXXX.oOXXXXXX  .oOXXX XX  .oO     X .oOX  XXX X.oO       .o",
"O XX XXX .oOXXXX XXX.oOXXXXX  X.oO  XXX X.oOX  X X X.oOXXX    .o",
"OXXXX  XX.oO XX XX X.oO   XX X .oOXX X XX.oOXXX  XXX.oOXX XXXX.o",
"OXXXX X  .oOXXXXX  X.oOXXX   XX.oO   XXXX.oO   X  XX.oOXXXXXXX.o",
"OXXXXXX  .oO XXXXX  .oOXXX XXXX.oO X   X .oO   X    .oO XXX X .o",
"OXXXX  XX.oOXXXXXXX .oOXXXXXXX .oOX     X.oO        .oOXXX    .o",
"O  X X  X.oO   X    .oOXX     X.oOXX XX X.oOX       .oOXXXX XX.o",
"O XX XX X.oO  XX X  .oO XX    X.oOX X XXX.oOXX   X X.oOXX    X.o",
"O XXXX XX.oOXXXX  X .oO  X   XX.oOXX XXX .oO   X  XX.oO XX    .o",
"O.........oO.........oO.........oO........oO.........oO........o",
"oooooooooooooooooooooooooooooooooooooooooooooooooooooooooooooooo",
"OOOOOOOOOOoOOOOOOOOOOoOOOOOOOOOOoOOOOOOOOOoOOOOOOOOOOoOOOOOOOOOo",
"O       X.oOXXX     .oO XXX X  .oOX      .oOX       .oOXXXXXX .o",
"OXXX     .oOX X  XXX.oOXXXX X  .oO X     .oO X X X  .oOXXXXXX .o",
"O        .oO X   XX .oOXXX X X .oOXX     .oOXXXX    .oOXXXXX  .o",
"OX X X  X.oOX XX    .oOXXX XX X.oO  X   X.oOXX XX   .oOXXXX XX.o",
"O  XX XXX.oO XXXXX  .oOXXX X   .oOX      .oO  X     .oOXXX X  .o",
"O     X X.oO X XX XX.oO X XXXXX.oO     X .oOX      X.oOX    XX.o",
"OX  XXX X.oO  X X   .oOX XXXXXX.oO . XX  .oOXXX    X.oO   X  X.o",
"O XXX XXX.oOX  XXX X.oO XXXXX  .oO   X XX.oOX X XX X.oO X   XX.o",
"OX    X  .oOXXX XX  .oOX XXXXXX.oO   X XX.oOX   X XX.oOX  XX X.o",
"OX X     .oO   XXX X.oOXXXX  XX.oO   X X .oO    XXX .oO    X X.o",
"OXXX X   .oO  XXX X .oOXXXX   X.oOX XX XX.oO X  XX X.oOXXX   X.o",
"O XXX   X.oO  XX  X .oOXXXX    .oO   X X .oO   XX  X.oO    X X.o",
"O  X XXXX.oO X    X .oO  XX X  .oO     X .oOXXX  XX .oO XXX   .o",
"O.........oO.........oO.........oO........oO.........oO........o",
"oooooooooooooooooooooooooooooooooooooooooooooooooooooooooooooooo",
"OOOOOOOOOOoOOOOOOOOOOoOOOOOOOOOOoOOOOOOOOOoOOOOOOOOOOoOOOOOOOOOo",
"O  X XXXX.oO  XXXX X.oO     XXX.oOXXXXXXX.oO XXX  XX.oO X XXXX.o",
"OX XX    .oO XXXXXX .oO   X   X.oOXXXXX X.oO   XXXXX.oO   XX  .o",
"OXXXXX  X.oOX XX  XX.oOX  X XX .oOXXXXX X.oOX XXXX  .oO  X    .o",
"O    X  X.oO  X  XXX.oO   XXX X.oO   X XX.oOX    XXX.oO XXXXXX.o",
"O     XXX.oOX XXXXXX.oO   XX  X.oO   X X .oO   X    .oOX      .o",
"OX      X.oO X X XX .oO  XXX XX.oO XXX X .oO  XX XX .oOXXX   X.o",
"O     X  .oO        .oO X X  XX.oOXXX  XX.oO XX    X.oO  X  XX.o",
"OX  X    .oOXX  XXX .oO X    XX.oOX  X   .oOX   X   .oOXX     .o",
"O X    X .oO XX XX  .oOXX  XXXX.oOX  X   .oO X     X.oOX     X.o",
"O   XX   .oOX XXX  X.oO      XX.oOX  XXX .oO X X   X.oO X  X X.o",
"O X XX   .oOXX   XX .oOX     XX.oOXX X   .oOXX   X  .oO X   XX.o",
"O  X    X.oO XXX  X .oO     XXX.oO  XX  X.oO       X.oOXX    X.o",
"OXXXXXXX .oOX      X.oO  XX XXX.oO XXX   .oO   XXX  .oO X     .o",
"O.........oO.........oO.........oO........oO.........oO........o",
"oooooooooooooooooooooooooooooooooooooooooooooooooooooooooooooooo"
};
