/* XPM */
static char *result[] = {
/* columns rows colors chars-per-pixel */
"64 64 17 1 ",
"  c #533C1B",
". c #885830",
"X c #5E5246",
"o c #6C4824",
"O c #5C4020",
"+ c #302410",
"@ c #736352",
"# c #744C28",
"$ c #242015",
"% c black",
"& c #2A2925",
"* c #524A42",
"= c #4C4436",
"- c #3A3227",
"; c #7B6B5A",
": c #181818",
"> c #94846B",
/* pixels */
"#.#oo OOoO#oo#.O#oOOOO#O OoOOOO O  oO#OoOOo#OOO O O O Oo#O#oOO# ",
"  --+$++++-$+- - -++$+-+$$++++-+ +$$$++++$+-$+-+ +-$+$++-$+++--+",
"$$$+$+$$$+$+$$+$$$+$$+$+$+$$$+$$$$+$+$$$+$$+$+$$$$+$+$$+$+$$+$+$",
"+-+-$%O+ + +   $%O + ++ -+$%O+++ -+++$%O+- +++ $%O +++++++$%O+  ",
" o o+%. # # ##o+%.# #  #O +%.  O#OO O+%.OO#O  #+%.#   OO  +%.O##",
" o o+%. # # ###+%.# #  #O +%.  O#O  O+%. O#O  #+%.o   OoO +%.O#o",
" o o+%. # # ###+%.# #  # O+%.  O#O OO+%. O#O  #+%.o  Oo#oO+%.o#o",
" o o+%. # # o##+%.# #  # O+%.  O#O Oo+%. O#O  #+%.O  O###O+%.##O",
" o o+%. # # o##+%.# #  # O+%.  O#O Oo+%. O#O  #+%.O  o###o+%.##O",
" o o+%. # # O##+%.# #  # O+%.  o#  O#+%.  #o  #+%.   #####+%.##O",
" o o+%. # # O##+%.# #  # O+%.  oo  O#+%.  oo  #+%.  O#####+%.##O",
" o o+%. # #O ##+%.# #  o O+%.  #o  o#+%.  o#  #+%.  O#####+%.#o ",
" o o+%. # #O ##+%.# #  o o+%.  #O  o#+%.  O#  #+%.  o#####+%.#o ",
" o o+%. # #O ##+%.# #  o o+%.  #O O##+%.O O#  #+%.  o#####+%.#o ",
" o o+%. # #O ##+%.# #  O o+%.  #O O##+%.O O#  #+%.  ###O##+%.#O ",
" o o+%. # #O ##+%.# #  O #+%.  #O O##+%.O O#  #+%. O##O O#+%.#O ",
" o o+%. # #O o#+%.# #    #+%.  #O O##+%.O O#  #+%. O##O Oo+%.#O ",
"Oo o+%. # #o o#+%.# #   O#+%.  #O O##+%.O O#  #+%. O#OO  O+%.#O ",
"Oo o+%. # #o oo+%.# #   O#+%.  #  o#o+%.o  #  #+%. o#O   O+%.o  ",
"Oo o+%. # #o Oo+%.# #   O#+%.  #  o#o+%.o  #  #+%. o#O    +%.o  ",
"Oo o+%. # ## Oo+%.# #   O#+%.  #  ##O+%.#  #  #+%. #o     +%.O  ",
"Oo o+%. # o# Oo+%.o #  Oo#+%.  #  ##O+%.#  #  #+%. #o     +%.O  ",
"OO o+%. # o#O O+%.o #  Oo#+%.  # O#oO+%.#O #  #+%. #O     +%.O  ",
"oO o+%. # O#O O+%.O #  O##+%.  # O#oO+%.#O #  #+%. #O     +%.   ",
"oO o+%. # O#O O+%.O #  O##+%.  # O#O +%.#O #  #+%. #O     +%.   ",
"#  o+%. # O#O O+%.O #  o#o+%.  # O#O +%.#O #  #+%.Oo      +%.  O",
"#  o+%. # O#oO +%.O #  o#o+%.  # O#O +%.#O #  #+%.Oo   OO +%.  O",
"#  o+%. # O#oO +%.O #  ##O+%.  # o#O +%.#o #  #+%.OO  OOOO+%.  O",
"#  o+%. #  ##O +%.  #  ##O+%.  # o# O+%.#o #  #+%.oO  OooO+%.  o",
"#  o+%. #  ##OO+%.  #  ##O+%.  # ## O+%.## #  #+%.oO  O##O+%.  o",
"o Oo+%. #  o#oO+%.  #  ##O+%.  # #o O+%.o# #  #+%.oO  o##O+%. O#",
"o Oo+%. #  o#oO+%.  #  ##O+%.  # #o o+%.o# #  #+%.oO  o##o+%. O#",
"O Oo+%. #O O##o+%. O#  #o +%.  # #o o+%.o# #  #+%.oO O###o+%.OO#",
"O Oo+%. #O O##o+%. O#  #o +%.  # #O o+%.O# #  #+%.o  O####+%.O##",
"O Oo+%. #O O###+%. O#  #O +%.  # #O #+%.O# #  #+%.o  O####+%.O##",
"  oo+%. #O O###+%. O#  #O +%.  # #O #+%.O# #  #+%.o  O####+%.###",
"  oo+%. #O O###+%. O#  oO +%.  # #O #+%.O# #  #+%.o  o####+%.##o",
"  #o+%. #O  o##+%. O#  oO +%.  # #O #+%.O# #  #+%.o  o####+%.##o",
"  #o+%. #o  o##+%. o#  OO +%.  # #O #+%.O# #  #+%.o  o####+%.##O",
"  #O+%. oo  O##+%. oo  O  +%.  # # O#+%. # #  #+%.o O###o#+%.##O",
"OOOO O  oO#OoOOo#OOO O O O Oo#O#oOO# ###oo OOoO#oo#.O#oOOOO#O Oo",
"+++-+ +$$$++++$+-$+-+ +-$+$++-$+++--+  --+$++++-$+- - -++$+-+$$+",
"$$$+$$$+$+$$$+$$+$+$$$$+$+$$+$+$$+$+$$$$+$+$$$+$+$$+$$$+$$+$+$+$",
"$$$$$$$$$$$$$$$$$$$$$$$$$$$$$$$$$$$$$$$$$$$$$$$$$$$$$$$$$$$$$$$$",
"@@@@@@@@@@*===:&&===*@@@@@@@@@@@@@@@@@@@@@*===:&&===*@@@@@@@@@@@",
"X*=*XX=====*=&%&&-XX**X@X@X==XX***@@X@;@X*XXX&%&&-@X@@;@@>;;@;>@",
"**===*===@*=*&%&&-X@XXXXX*X*=*XXXXX@@@X*===**&%&&-XX@;>;;;X;@@@;",
"@**=X=XX*X@X=&%&&-@X@X@@;X**===X@*@X@@@@X=*=*&%&&-X@X>>>@;;@@X@@",
"@*@X=*X*X*@X*&%&&-@X@X;@@@**==-@@@XXX@@X;@*-*&%&&-@@@>>>>@@@@X@X",
"XXX==**XX*XX@&%&&-@;@X@XXXXX=*==**X*XX@XXXX*=&%&&-;;;@>>>@X@@XX@",
"X@X*==**@XX@>&%&&-;@XX*X@XX===&--X*X*@;;X@XX=&%&&-@@;@@;;>;XXX@X",
"**@@@;XX;;@@@&%&&-X@@XXX*XX*=**===-XXX@;;@@@@&%&&-@*X@X;>;;@X@X@",
"%%%%%:::::$&&&%&&&&&$::::%%%%%%%%%%%%:::::$&&&%&&&&&$::::%%%%%%%",
"%%%%%%%%%%%%%%%&&:%%%%%%%%%%%%%%%%%%%%%%%%%%%%%&&:%%%%%%%%%%%%%%",
"$$$$$$$$$$$$$$$&&$$$$$$$$$$$$$$$$$$$$$$$$$$$$$$&&$$$$$$$$$$$$$$$",
"&===*@@@@@@@@@@@@@@@@@@@@@*===:&&===*@@@@@@@@@@@@@@@@@@@@@*===:&",
"&-XX@X@@;@@@;@XX@@@X==*=XXX@@&%&&-@X@*XXX;;;@;@XX@@XXX*=X@@X;&%&",
"&-XXX@*;;>>;X*XXX@X@X=*XX@X;@&%&&-=X***XXX;@;@@@X@*XXX****X@;&%&",
"&-*=*@X;;;;;X@*=*X*X@*=@@@X;@&%&&-=XX*X*X*@X@@XXX*=***X*@XX@X&%&",
"&-=-*=;@;;>;X*=*=XXXX@*X@@;;X&%&&-XX**====XX@@X**-X=X@XX@@X@@&%&",
"&-*=*XX@@;;>@X*-=**@X@XX@@@@X&%&&-=*X*======@X@X*=**=@@@;;X*=&%&",
"&-*==*XX@@X@XXX*=**@X@@XX@X@@&%&&-*===*-=*==X*@@XX=X*X;@@X@@=&%&",
"&&&&$::::%%%%%%%%%%%%:::::$&&&%&&&&&$::::%%%%%%%%%%%%:::::$&&&%&",
"&:%%%%%%%%%%%%%%%%%%%%%%%%%%%%%&&:%%%%%%%%%%%%%%%%%%%%%%%%%%%%%&"
};
