/* XPM */
static char *result[] = {
/* columns rows colors chars-per-pixel */
"64 64 12 1 ",
"  c #905C34",
". c #6C4824",
"X c #543C1C",
"o c #5C4020",
"O c #80502C",
"+ c #744C28",
"@ c #885830",
"# c #9C6038",
"$ c #483818",
"% c #403018",
"& c #382C14",
"* c black",
/* pixels */
"                               . XoOo++Oo.O@++O.o              .",
" ....+++@O@O@@+++.oXo.oO.++# @+o .o.oO@.+@+++O@+o .XO$+oo.Oo.+Xo",
" ++.O..o+OOO+O@oXo.XoO.+.@O.oooo .oo.+.oo+o@+OO.o .o@%+.....O.Xo",
" .XXoo$%.+O+...Oo.X+oXoXo....++o X..o.oXo..@.@O+o .o@XO.O..XX+Xo",
" XX$XX.o...O@+o.oo+..oo.Xo++@@+o oOooO+X.+o#O@+.o XoO$.O+.oX...o",
" o.+.X+.@+O@Oo...+.o@@++@..++@.o oX.o+..+o$O+@OOo +.Oo.+o@..o.Xo",
" @@+@@ @O# @++@@O@+O+@@O@+XOo+.o .$X.o.XO.X . .+o .+ ..@@@+.+ooo",
" $Xo+..ooX..XX$ooXoXX.o.o.oo.++o .++o.+..O$@.O.Oo o. X+....+.++o",
" +O+.+$XO.oooX.o+..+O @+@.O.+o@o +.Xo+..O.&+..o+o .@@X...+@..oOo",
" ...X+X.o.o.OX..o...+@O+@+.@O..o o+..O...ooO.O$+o ++OX@.o.O+oo.o",
" O..oo.ooo.ooOooooXXX..oo$$.++.o XO..@.o.oX.o+oOo .O .@+...o.++o",
" O@O+.o+O.+O+O+@O@O@++oX..o+.+Oo $+.OOO..X$+XXX o + #+.o++OO.$.o",
" O...+..+o.@+++.o.O++O.+o++Oo.oo XooO +.X+.oo.X.o +.O...@+o.oo.o",
" .o...X.XXo.O @O+@o++ +@O@# @O.o o+o+ @.o.XXoXo.o +++.@+..o.oo+o",
" ...O.O+.oo+oo+XoXoo%X+.Oooo.o.o .#..+.oo.XXO+..o ..@O#@ .o..X+o",
".ooooooooooooooooooooooooooooooo.oooooooooooooooo +X+OO++.oo.+oo",
"               .                                . +.+o+....@oXOo",
" ++OX+..O+o@ O.o X...oXoooXX..oo...X+X.o.o.OX..oo @o+o@+.X++.o+o",
" oOO..X.$+..O.oo o..o...oo..+.+OO..oo.ooo.ooOoooo +O..+o+oX@o.Xo",
" o.++X+..Oo.++oo .X$X%X.oXX+++  O@O+.o+O.+O+O+@Oo .OO.+..+o+Oooo",
" +++X.++XX$+O..o .XXX..o+..X+.@+O...+..+o.@+++.oo .++++...++@Ooo",
" $...X+.o$..O.Xo .O+...o.oo$Xo...o...X.XXo.O @O+o o.+o.O..X.Oooo",
" o.+.XO.$oXo+XOo .+@+o.++XXo.ooX...O.O+.oo+oo+Xoo .oo+.+.oX+OXoo",
" o+o+o+.$oX.Oo.o .++@.+#+o++O..+Xoo.O.o+.+@.+o @o +o+@Oo$.+$O.Xo",
" X+.O.O+..o.OX+o OXo+.++@O@.oXX.$Xo&$X$o.o+OO++ o Oo.+o+X.XXO..o",
" +oo o..o.o$@+Oo .+..@.+o+..+XXo+.O+@ O#@@+@@O.+o +$OOo+X+.oOXoo",
" XO.+XO.o.oo..+o oXo.o.o+@..OOooXo....+O.+++@.o+o +X@@oOX..X+.+o",
" o+oO+.o.....+@o @@Ooo.$oX.XX+X.X+O.O @@@OO++o+.o O.  .@$oXX+$Oo",
" .X.@X.X$@.XO++o O@@+.@+@.+++.oXXo$o..O+OO@O+...o @o OoOo.X.@XOo",
" oo$Oo.o.Oo$+++o .o.oo+Xo$X+.... O++O+O.+.+...oXo .X+@.OoOXX..+o",
" Oo%+X.o.. .O++o o.@.++o+X$X$oX$ooooo.o+.+....o.o ..@O.Oo+X.+o+o",
" ooX XXo.o+XX.oo.oooooooooooooooooooooooooooooooo.oooooooooooooo",
" Xo%.ooXOo.X...o               .                               .",
" .X$+$..@.++.Ooo @OXo.@@X...+@.o .+o.+.@.O.+X$%$XXX&$%X%$.o.o.oo",
" ..&O$.+.o.O@..o OoX.++OX@.o.O+o +.oo+XoX++...+X.XoO+. +O@O+ O+o",
" XoXoo.+O.....+o  o%X.O .@+...oo + .o.X.XXXXoXX&o$o$$oXXoX+Xo.oo",
" .+XX$+.OX.O.o+o +XX++ #+.o++OOo X.oo...oO+O+Ooo.+...oX....O.O+o",
" $OX.o.XOXX..+oo +X&.+.O...@+o.o .Xo.$.....o.+++X.++.XoooXo..+.o",
" XO$X&o+o$o+o.+o ..X.+++.@+..o.o o..+@+OOO#O+.+oOOO.@O...$.oo.$o",
" .+%+Xo++$XOXO+o +.oo..@O#@ .o.o +Xo...+..oXoo$$XX.o.oo.O@....oo",
" o+$.XO+.ooO+..o o...+X+OO++.ooo .o.o.@+.+oo+oXoX...+.+ o..oooXo",
" o.X.o+.+o+OX+@o ++..+.+o+....@o +O..ooo$XoOOOO+.O.O+XX.$X.o$..o",
" $++.XOoOXoOo  o +O..@o+o@+.X++o @...+.+.$$oX+Xo...@..XO+O..@OOo",
" o..+X+.#ooo$@+o O@+.+O..+o+oX@o +.@@@++@ @ +.O.+o..O..++++.+Xoo",
" o.O+XO.O.+X$ +o OO.+.OO.+..+o+o ++oO@+..++ @.++o++.o.o+++@+O+.o",
" X..XXo.O..$.@.o @O+..++++...++o OXo...O+..X+.+.+..+O++oo.+..ooo",
" o.@o...O++o++.o @+.+o.+o.O..X.o O@O+.+oo+.O+@+.+++++.+++@.@O++o",
".ooooooooooooooo @OOo.oo+.+.oX+o.ooooooooooooooooooooooooooooooo",
"               .  .+.+o+@Oo$.+$o               .                ",
"@@O.+O+...@O++Oo O.OoOo.+o+X.XXo .@.+O o@.XX..+o ...+.+@.+@@ OO@",
" O+.+..o.Xo.X$oo .o+o+$OOo+X+.oo O.$o+#oO+$X@..o ++.ooo....o.@+.",
"+++.++.O@+  @O.o O$+o+X@@oOX..Xo .+$.+@o@+o.+O.o +$X.Xoo..O..+@@",
"Xoo.+o.+O@O @O+o +oOoO.  .@$oXXo @@o.oOO.o$.O.+o +++..O.+..oO.+o",
"Xooo..XX..o.oooo XX o@o OoOo.X.o ++oX+@..oo. @.o ..Xo.X$$$oXXXXX",
".@O.@@@@OOO@O++o .X.$.X+@.OoOXXo @O.o.++.$X@++.o X$$X+...o.++@..",
"..+....oooo$XXXo Xo.X..@O.Oo+X.o  @.+O XooXO@OXo +O+++.oo+OO O++",
"@@ @@+#++O.o.+.o +..o.oO+X@o+.Oo O+X+++%..o.OoXo   @@#@ +++@@OOo",
"X.oXoXo.XXXX..Xo X+.$+...X@.#o@o +.X@++o+.$. o%o .X..oo+++X.o..o",
"+++@O@@O.X.XXoXo X++XO.+o.@.+X@o ..XOOooO@.O+XXo oo..+.+.O.OO.O+",
"o+O++.+@+.@++OOo .+X$++++.@.@oOo ..o@.@XO@..+X&o &$$XX...X.+..+.",
"oooXoo$oo.X$.X.o X.$X....o..@X@o +ooOo+o@ ++..Xo X+++OOO O+++..+",
"++....+.++OO+o.o o@o+O++ooO+ o+o o.o@.OX +.o+.oo $+.+o...+.+.OO+",
"+.@.O.+X$%$XXX&o $+Xo@O+oo@.@.+o ..o++@+o+O.o..o X.o+o+++....+o.",
"oooooooooooooooo.ooooooooooooooo XXOO+ o+O@@++.o.ooooooooooooooo"
};
